<?xml version="1.0" encoding="utf-8"?>
<!-- Generator: Adobe Illustrator 24.1.0, SVG Export Plug-In . SVG Version: 6.00 Build 0)  -->
<svg version="1.1" id="Ebene_1" xmlns="http://www.w3.org/2000/svg" xmlns:xlink="http://www.w3.org/1999/xlink" x="0px" y="0px"
	 viewBox="0 0 927.3 403.1" style="enable-background:new 0 0 927.3 403.1;" xml:space="preserve">
<style type="text/css">
	.st0{fill:#FFFFFF;}
</style>
<rect id="XMLID_1424_" x="-3.2" y="1" width="931.3" height="404.3"/>
<path id="XMLID_1381_" class="st0" d="M171.2,177.7c0,7.5-4.7,13.1-14,16.8c-7.2,2.9-16.1,4.3-26.5,4.3H88
	c-11.2,0-20.6-1.3-28.3-3.9c-10.5-3.5-15.8-9.2-15.8-16.9v-41.5c0-7.5,5.4-13,16.1-16.5c8.5-2.7,17.8-4,28.1-4h17
	c4.6,0,6.9,2,6.9,6.1c0,4.1-2.3,6.2-6.9,6.2h-5.2c-0.5,0-0.8,0-0.8-0.1c-1.3,0-2.5-0.1-3.5-0.1c-1,0-1.9,0-2.5,0
	c-20.2,0-30.4,2.8-30.4,8.4v41.5c0,5.6,8.5,8.4,25.5,8.4h42.6c4.1,0,8.4-0.6,13-1.8c5.8-1.6,8.7-3.6,8.7-6.3v-8.8H126
	c-3.5,0-6.3-3-6.3-6.6c0-3.7,2.9-6.6,6.3-6.6h31.8c1.6-0.2,3.9-0.1,6.9-0.1c4.4,0,6.6,1.8,6.6,5.3V177.7"/>
<g id="XMLID_1373_">
	<path id="XMLID_1380_" class="st0" d="M739.4,139.9c0,3.6-2.8,5.4-8,5.4c-0.7,0-1.7,0-3.1-0.1H725c-13.7,0-20.5,2.7-20.5,8.2v39.6
		c0,2.7-1.4,4.3-3.8,5c-1,0.3-3.7,0.4-7.8,0.4c-4.2,0-6.3-1.8-6.3-5.4v-39.6c0-8.7,5.4-14.4,16.3-17.4c6.6-2,16.5-2.8,29.7-2.8
		C737.2,133.2,739.4,135.4,739.4,139.9"/>
	<path id="XMLID_1377_" class="st0" d="M844.6,178.1V153c0-5.2-7.3-7.8-22.1-7.8h-29.2c-5.4,0-10.3,0.6-14.6,1.7
		c-6.1,1.7-9,4.1-9,7.3v24c0,3.1,3.1,5.4,9.2,6.8c4.2,1,9,1.4,14.6,1.4h29c4.7,0,9.2-0.6,13.4-1.5
		C841.7,183.3,844.6,181.1,844.6,178.1 M862.7,178.1c0,7.5-4.5,13-13.7,16.3c-6.4,2.7-15.1,4-25.9,4h-29.7c-9.9,0-18.8-1.4-26.8-4
		c-9.9-3.5-14.8-8.9-14.8-16.3v-24c0-7.3,4.9-12.8,14.6-16.6c7.3-2.9,16.2-4.3,26.8-4.3h29.9c26.4,0,39.6,6.8,39.6,20.8V178.1z"/>
	<path id="XMLID_1374_" class="st0" d="M651.6,146v-11.3c0-4.7-8.2-7.3-24.6-7.3h-66.7v28.7H627C643.4,156.2,651.6,152.7,651.6,146
		 M670.4,146.5c0,8.2-5.2,14.2-15.5,18c-8,2.6-17.6,3.9-28.9,3.9h-65.7v24.3c0,2.6-1.2,4.3-4,5c-0.7,0.3-3.5,0.4-8.2,0.4
		c-4.4,0-6.6-1.8-6.6-5.4v-72.3c0-3.5,2.3-5.3,6.6-5.3h78.7c10.6,0,19.7,1.3,27.2,3.5c11,3.3,16.4,8.4,16.4,14.9V146.5L670.4,146.5z
		"/>
</g>
<rect id="XMLID_1372_" x="43.4" y="218.9" class="st0" width="175.8" height="102.9"/>
<rect id="XMLID_1371_" x="255.5" y="218.9" class="st0" width="175.8" height="102.9"/>
<rect id="XMLID_1370_" x="469" y="218.9" class="st0" width="175.8" height="102.9"/>
<rect id="XMLID_1369_" x="686.9" y="218.9" class="st0" width="175.8" height="102.9"/>
<g id="XMLID_1367_">
	<path id="XMLID_75_" class="st0" d="M238,138.5c0,3.7-2.7,5.5-8,5.5c-0.7,0-1.8,0-3.2-0.1c-1.4-0.1-2.5-0.1-3.2-0.1
		c-13.8,0-20.7,2.8-20.7,8.4v40.6c0,2.7-1.3,4.4-3.7,5.1c-1,0.3-3.6,0.4-7.8,0.4c-4.3,0-6.4-1.9-6.4-5.6v-40.5
		c0-8.7,5.5-14.6,16.4-17.8c6.7-1.9,16.7-2.9,29.9-2.9C235.7,131.5,238,133.8,238,138.5z"/>
	<path id="XMLID_60_" class="st0" d="M353.5,177.5c0,7.6-4.6,13.2-13.8,16.7c-6.5,2.7-15.2,4-26.1,4h-29.9c-9.9,0-18.8-1.4-26.8-4.1
		c-9.9-3.6-14.8-9.2-14.8-16.6v-24.6c0-7.5,4.9-13.1,14.7-17c7.2-3,16.1-4.5,26.8-4.5h30c26.6,0,39.9,7.1,39.9,21.3V177.5z
		 M335.2,177.5v-25.7c0-5.3-7.4-7.9-22.1-7.9h-29.2c-5.5,0-10.3,0.6-14.6,1.7c-6.1,1.6-9.2,4.1-9.2,7.4v24.6c0,3.2,3.1,5.5,9.4,7
		c4.1,1,9,1.5,14.6,1.5h29.2c4.7,0,9.2-0.6,13.4-1.7C332.3,182.7,335.2,180.5,335.2,177.5z"/>
	<path id="XMLID_52_" class="st0" d="M525,136c0,1-0.4,2.2-1.3,3.5l-33.3,52.8c-1.9,3.1-5.6,4.7-10.9,4.7c-5.1,0-8.7-1.5-10.6-4.5
		l-26.5-40.6l-26.9,40.7c-2,3.1-5.7,4.6-11,4.6c-5.5,0-9.2-1.6-11.2-4.8l-32.6-52.9c-0.8-1.8-1.2-3-1.2-3.5c0-3.2,2.8-4.7,8.4-4.7
		c4.9,0,8.1,1.1,9.5,3.3l27.6,43.6l26.9-40.6c2.1-3.2,5.6-4.9,10.4-4.9c4.7,0,8.1,1.6,10.2,4.8l26.9,40.6l27.5-43.6
		c1.4-2.2,4.5-3.3,9.5-3.3C522.2,131.2,525,132.8,525,136z"/>
</g>
<path id="XMLID_40_" class="st0" d="M874,191.6c-4.2,0-7.6,3.4-7.6,7.6c0,4.2,3.4,7.6,7.6,7.6c4.2,0,7.6-3.4,7.6-7.6
	C881.7,195,878.2,191.6,874,191.6z M874,205.8c-3.6,0-6.5-2.9-6.5-6.5s2.9-6.5,6.5-6.5c3.6,0,6.5,2.9,6.5,6.5S877.6,205.8,874,205.8
	z"/>
<path id="XMLID_48_" class="st0" d="M876.6,200.5c-0.3-0.4-0.5-0.7-0.8-1c-0.1-0.1-0.3-0.2-0.6-0.4c0.7-0.1,1.2-0.3,1.5-0.7
	c0.3-0.4,0.5-0.8,0.5-1.3c0-0.4-0.1-0.8-0.3-1.1c-0.2-0.3-0.5-0.6-0.8-0.7c-0.3-0.1-0.8-0.2-1.5-0.2h-3.2v7.2h1v-3.2h1.1
	c0.3,0,0.4,0,0.5,0c0.2,0,0.3,0.1,0.4,0.2c0.1,0.1,0.3,0.3,0.5,0.5c0.2,0.2,0.4,0.6,0.7,1l1,1.5h1.2L876.6,200.5z M874.4,198.4h-2.1
	V196h2.3c0.5,0,0.9,0.1,1.2,0.3c0.3,0.2,0.4,0.5,0.4,0.8c0,0.2-0.1,0.5-0.2,0.7c-0.1,0.2-0.3,0.3-0.6,0.4
	C875.2,198.4,874.9,198.4,874.4,198.4z"/>
</svg>
